<svg xmlns="http://www.w3.org/2000/svg" viewBox="0 0 40 40">
  <rect width="40" height="40" rx="8" fill="#C9A646"/>
  <path d="M11 9 H22.3 C25.6 9 27.7 11 27.7 14 C27.7 15.7 26.9 16.9 25.4 17.6 C27.4 18.2 28.6 19.8 28.6 22.2 C28.6 25.4 26.4 27.5 22.8 27.5 H11 Z M14.7 12.2 V17.4 H21 C22.7 17.4 23.7 16.4 23.7 14.8 C23.7 13.2 22.7 12.2 21 12.2 Z M14.7 20.4 V24.3 H22.1 C23.9 24.3 25 23.3 25 21.7 C25 20.1 23.9 19.1 22.1 19.1 H14.7 Z" fill="#0A1424"/>
  <circle cx="33" cy="33" r="3.2" fill="#0A1424"/>
  <circle cx="33" cy="33" r="1.4" fill="#C9A646"/>
</svg>
