<svg xmlns="http://www.w3.org/2000/svg" viewBox="0 0 320 80" role="img" aria-label="Baufinanzierung Bamberg">
  <rect x="0" y="20" width="40" height="40" rx="8" fill="#C9A646"/>
  <path d="M11 29 H22.3 C25.6 29 27.7 31 27.7 34 C27.7 35.7 26.9 36.9 25.4 37.6 C27.4 38.2 28.6 39.8 28.6 42.2 C28.6 45.4 26.4 47.5 22.8 47.5 H11 Z M14.7 32.2 V37.4 H21 C22.7 37.4 23.7 36.4 23.7 34.8 C23.7 33.2 22.7 32.2 21 32.2 Z M14.7 40.4 V44.3 H22.1 C23.9 44.3 25 43.3 25 41.7 C25 40.1 23.9 39.1 22.1 39.1 H14.7 Z" fill="#0A1424"/>
  <circle cx="33" cy="53" r="3.2" fill="#0A1424"/>
  <circle cx="33" cy="53" r="1.4" fill="#C9A646"/>

  <text x="56" y="36" font-family="Inter, system-ui, sans-serif" font-size="10" font-weight="500" letter-spacing="1.8" fill="#5A6A82">BAUFINANZIERUNG</text>
  <text x="56" y="60" font-family="Fraunces, Georgia, serif" font-size="28" font-weight="600" letter-spacing="-0.5" fill="#0A1424">Bamberg</text>
</svg>
